<?xml version="1.0" encoding="utf-8"?>
<!-- Generator: Adobe Illustrator 15.1.0, SVG Export Plug-In . SVG Version: 6.00 Build 0)  -->
<!DOCTYPE svg PUBLIC "-//W3C//DTD SVG 1.1//EN" "http://www.w3.org/Graphics/SVG/1.1/DTD/svg11.dtd">
<svg version="1.1" id="Layer_1" xmlns="http://www.w3.org/2000/svg" xmlns:xlink="http://www.w3.org/1999/xlink" x="0px" y="0px"
	 width="41.083px" height="20px" viewBox="0 0 41.083 20" enable-background="new 0 0 41.083 20" xml:space="preserve">
<g>
	<path fill="#FFFFFF" d="M9.983,0.5c2.657,0,4.919,0.928,6.786,2.783c0.893,0.893,1.572,1.914,2.036,3.062S19.5,8.711,19.5,10
		c0,1.3-0.229,2.519-0.687,3.656s-1.134,2.141-2.027,3.011c-0.928,0.916-1.979,1.618-3.155,2.104
		c-1.177,0.487-2.392,0.729-3.647,0.729c-1.256,0-2.457-0.24-3.605-0.721c-1.148-0.48-2.177-1.176-3.087-2.087
		c-0.911-0.91-1.604-1.937-2.078-3.079C0.738,12.472,0.5,11.267,0.5,10c0-1.255,0.24-2.462,0.722-3.622
		C1.702,5.22,2.4,4.182,3.316,3.266C5.126,1.422,7.348,0.5,9.983,0.5z M10.018,2.214c-2.172,0-3.998,0.758-5.479,2.273
		C3.792,5.245,3.217,6.096,2.816,7.04C2.414,7.984,2.214,8.972,2.214,10c0,1.018,0.2,1.999,0.602,2.943
		c0.401,0.945,0.976,1.787,1.722,2.528c0.746,0.741,1.589,1.306,2.527,1.697c0.938,0.39,1.922,0.585,2.952,0.585
		c1.018,0,2.004-0.198,2.96-0.594c0.956-0.396,1.817-0.967,2.587-1.713c1.481-1.448,2.223-3.263,2.223-5.446
		c0-1.052-0.192-2.047-0.577-2.986c-0.385-0.938-0.944-1.775-1.68-2.511C14.004,2.978,12.166,2.214,10.018,2.214z M9.898,8.423
		L8.626,9.084C8.49,8.802,8.323,8.604,8.126,8.49C7.928,8.378,7.744,8.321,7.574,8.321c-0.848,0-1.272,0.56-1.272,1.679
		c0,0.509,0.107,0.916,0.322,1.221c0.215,0.306,0.532,0.458,0.95,0.458c0.554,0,0.944-0.271,1.171-0.814l1.17,0.594
		c-0.249,0.464-0.594,0.829-1.035,1.095c-0.441,0.266-0.928,0.398-1.459,0.398c-0.849,0-1.533-0.26-2.053-0.78
		c-0.521-0.521-0.78-1.244-0.78-2.171c0-0.905,0.263-1.623,0.789-2.155c0.526-0.531,1.19-0.797,1.993-0.797
		C8.547,7.049,9.39,7.507,9.898,8.423z M15.378,8.423l-1.255,0.662c-0.136-0.283-0.303-0.481-0.5-0.594
		c-0.198-0.112-0.388-0.169-0.568-0.169c-0.848,0-1.272,0.56-1.272,1.679c0,0.509,0.107,0.916,0.322,1.221
		c0.215,0.306,0.532,0.458,0.95,0.458c0.554,0,0.944-0.271,1.17-0.814l1.188,0.594c-0.261,0.464-0.611,0.829-1.052,1.095
		s-0.921,0.398-1.442,0.398c-0.859,0-1.547-0.26-2.061-0.78c-0.515-0.521-0.772-1.244-0.772-2.171c0-0.905,0.263-1.623,0.789-2.155
		c0.525-0.531,1.19-0.797,1.993-0.797C14.043,7.049,14.88,7.507,15.378,8.423z"/>
</g>
<g>
	<path fill="#FFFFFF" d="M30.983,0.5c2.669,0,4.919,0.916,6.751,2.749C39.578,5.092,40.5,7.342,40.5,10
		c0,2.669-0.905,4.892-2.714,6.667c-1.922,1.889-4.19,2.833-6.802,2.833c-2.568,0-4.795-0.933-6.684-2.799
		C22.434,14.835,21.5,12.602,21.5,10c0-2.601,0.934-4.852,2.799-6.751C26.131,1.416,28.359,0.5,30.983,0.5z M31.017,2.213
		c-2.16,0-3.986,0.758-5.479,2.273C23.988,6.07,23.214,7.908,23.214,10c0,2.104,0.769,3.925,2.307,5.462
		c1.538,1.538,3.37,2.307,5.497,2.307c2.115,0,3.958-0.774,5.53-2.324c1.493-1.437,2.239-3.251,2.239-5.446
		c0-2.16-0.758-3.998-2.273-5.513C34.998,2.971,33.166,2.213,31.017,2.213z M33.562,7.642v3.885h-1.086v4.614h-2.952v-4.614h-1.086
		V7.642c0-0.17,0.06-0.314,0.178-0.433s0.263-0.178,0.433-0.178h3.902c0.158,0,0.299,0.06,0.424,0.178S33.562,7.472,33.562,7.642z
		 M29.677,5.199c0-0.894,0.441-1.34,1.323-1.34c0.882,0,1.323,0.447,1.323,1.34c0,0.882-0.441,1.323-1.323,1.323
		C30.118,6.522,29.677,6.081,29.677,5.199z"/>
</g>
</svg>
