<?xml version="1.0" encoding="utf-8"?>
<!-- Generator: Adobe Illustrator 18.1.1, SVG Export Plug-In . SVG Version: 6.00 Build 0)  -->
<svg version="1.1" id="Layer_1" xmlns="http://www.w3.org/2000/svg" xmlns:xlink="http://www.w3.org/1999/xlink" x="0px" y="0px"
	 viewBox="-281 404.9 32 32" enable-background="new -281 404.9 32 32" xml:space="preserve">
<path fill="#FFFFFF" d="M-254.4,404.9h-21.2c-3,0-5.4,2.4-5.4,5.4v21.2c0,3,2.4,5.4,5.4,5.4h21.2c3,0,5.4-2.4,5.4-5.4v-21.2
	C-249,407.3-251.4,404.9-254.4,404.9z M-269,430.9h-4v-14h4V430.9z M-271,414.9c-1.1,0-2-0.9-2-2c0-1.1,0.9-2,2-2s2,0.9,2,2
	C-269,414-269.9,414.9-271,414.9z M-255,430.9h-4v-8c0-1.1-0.9-2-2-2s-2,0.9-2,2v8h-4v-14h4v2.5c0.8-1.1,2.1-2.5,3.5-2.5
	c2.5,0,4.5,2.2,4.5,5V430.9z"/>
</svg>
