<?xml version="1.0" encoding="utf-8"?>
<!-- Generator: Adobe Illustrator 15.1.0, SVG Export Plug-In . SVG Version: 6.00 Build 0)  -->
<!DOCTYPE svg PUBLIC "-//W3C//DTD SVG 1.1//EN" "http://www.w3.org/Graphics/SVG/1.1/DTD/svg11.dtd">
<svg version="1.1" id="Layer_1" xmlns="http://www.w3.org/2000/svg" xmlns:xlink="http://www.w3.org/1999/xlink" x="0px" y="0px"
	 width="292.861px" height="33.528px" viewBox="0 0 292.861 33.528" enable-background="new 0 0 292.861 33.528"
	 xml:space="preserve">
<g>
	<g>
		<path fill="#FFFFFF" d="M0,2.938h13.804c9.886,0,11.758,4.26,11.758,9.118c0,5.622-5.111,8.437-11.203,8.437h-3.237v6.601h2.598
			v5.625H0v-5.625h2.387V8.521H0V2.938L0,2.938z M11.121,8.477v7.413h1.914c2.473,0,4.176-1.278,4.176-3.535
			c0-2.515-1.488-3.877-3.959-3.877H11.121L11.121,8.477z"/>
		<path fill="#FFFFFF" d="M47.273,29.779c-3.154,2.725-6.563,3.705-10.995,3.705c-5.282,0-11.247-3.361-11.247-11.545
			c0-6.984,5.024-11.121,11.458-11.121c5.074,0,8.949,2.6,10.187,6.179c0.51,1.491,0.979,4.773,0.082,7.199H33.34
			c0.253,1.154,0.808,3.495,4.387,3.495c1.452,0,3.665-0.124,5.963-2.043L47.273,29.779L47.273,29.779z M33.467,19.98h6.437
			c-0.045-1.621-0.428-3.411-3.155-3.411C34.147,16.569,33.552,18.911,33.467,19.98L33.467,19.98z"/>
		<path fill="#FFFFFF" d="M60.669,32.719H48.612V27.14h1.875V16.953h-1.833v-5.538h8.012l1.276,2.729
			c1.108-2.048,2.217-3.793,6.604-3.793v7.671c-3.833,0-6.009,0.979-6.009,4.728v4.39h2.131V32.719L60.669,32.719z"/>
		<path fill="#FFFFFF" d="M79.481,5.96c-0.465-0.213-1.188-0.428-2.344-0.428c-0.935,0-1.357,0.726-1.357,2.263v3.62h3.873v5.538
			H75.78V27.14h2.555v5.579H65.637V27.14h1.703V16.953h-1.747v-5.538h1.747v-3.62C67.341,5.364,68.108,0,75.78,0
			c2.215,0,5.155,0.506,6.262,1.064L79.481,5.96L79.481,5.96z"/>
		<path fill="#FFFFFF" d="M80.165,21.979c0.044-7.115,5.793-11.072,11.675-11.072c6.729,0.084,11.713,4.131,11.84,11.246
			c0.089,7.07-5.153,11.117-11.626,11.117C85.958,33.27,80.078,29.525,80.165,21.979L80.165,21.979z M94.948,22.153
			c0-3.196-1.104-5.667-3.107-5.707c-1.663,0-2.94,2.465-2.94,5.578c0,3.495,1.363,5.792,3.155,5.792
			C93.885,27.815,94.948,25.351,94.948,22.153L94.948,22.153z"/>
		<path fill="#FFFFFF" d="M116.751,32.719h-12.059V27.14h1.876V16.953h-1.832v-5.538h8.009l1.275,2.729
			c1.109-2.048,2.218-3.793,6.605-3.793v7.671c-3.833,0-6.008,0.979-6.008,4.728v4.39h2.133V32.719L116.751,32.719z"/>
		<path fill="#FFFFFF" d="M134.427,32.719h-12.653V27.14h1.787V17.082h-1.787v-5.623h8.049l0.94,2.516
			c0.681-0.811,2.643-3.112,5.325-3.112c4.306,0,5.665,2.043,6.349,3.067c1.32-1.492,3.323-3.067,6.262-3.067
			c6.905,0,7.969,5.026,7.969,10.226v5.876h2.087v5.753h-10.821V22.283c0-2.049,0.383-5.286-1.618-5.286
			c-1.832,0-2.26,1.278-2.26,3.107v6.906h2.559v5.708h-11.035V21.854c0-3.45-0.087-4.857-1.79-4.857
			c-1.365,0-1.917,0.811-1.917,2.556v7.586h2.556V32.719L134.427,32.719z"/>
		<path fill="#FFFFFF" d="M160.274,13.205c1.705-1.019,5.367-3.023,9.289-3.023c5.114,0,11.545,1.914,11.545,8.775v8.307h2.555
			v5.455h-9.115l-1.024-1.915c-1.573,2.173-4.219,2.726-5.749,2.726c-4.049,0-8.395-2.174-8.395-7.115
			c0-4.812,4.046-7.84,8.861-7.84c2.516,0,4.004,1.238,4.219,1.492v-1.492c0-1.919-1.744-2.387-4.047-2.387
			c-2.514,0-4.729,1.069-6.346,1.96L160.274,13.205L160.274,13.205z M172.46,26.583v-1.621c-0.127-0.208-0.724-1.233-2.514-1.233
			c-1.705,0-2.471,0.939-2.471,2.257c0,1.194,0.979,2.004,2.258,2.004C171.012,27.99,172.077,27.219,172.46,26.583L172.46,26.583z"
			/>
		<path fill="#FFFFFF" d="M198.028,32.719h-13.125V27.14h1.791V16.953h-1.791v-5.538h9.078l0.979,2.64
			c1.451-1.998,3.409-3.406,6.094-3.406c6.603,0,7.711,4.902,7.711,9.372v7.119h2.002v5.579h-10.737v-11.63
			c0-1.452,0.128-3.966-2.384-3.966c-2.172,0-2.686,2.137-2.686,3.966v6.051h3.068V32.719L198.028,32.719z"/>
		<path fill="#FFFFFF" d="M223.602,16.569c-2.514,0-3.75,2.69-3.75,5.455c0,2.769,1.662,4.986,4.389,5.025
			c2.258,0.045,3.748-0.889,5.155-2.426l3.749,4.345c-2.001,2.178-5.838,4.346-10.438,4.346c-6.262,0-11.717-3.789-11.717-11.375
			c0-7.537,5.025-10.908,10.484-10.908c2.895,0,4.596,1.576,5.322,2.426l0.723-2.042h5.027v9.629h-6.261
			C226.2,19.001,225.561,16.569,223.602,16.569L223.602,16.569z"/>
		<path fill="#FFFFFF" d="M255.704,29.779c-3.15,2.725-6.562,3.705-10.992,3.705c-5.282,0-11.246-3.361-11.246-11.545
			c0-6.984,5.026-11.121,11.459-11.121c5.072,0,8.949,2.6,10.184,6.179c0.511,1.491,0.979,4.773,0.086,7.199h-13.42
			c0.255,1.154,0.807,3.495,4.39,3.495c1.446,0,3.661-0.124,5.964-2.043L255.704,29.779L255.704,29.779z M241.903,19.98h6.434
			c-0.043-1.621-0.428-3.411-3.155-3.411C242.581,16.569,241.985,18.911,241.903,19.98L241.903,19.98z"/>
	</g>
	<g>
		<polygon fill="#FFFFFF" points="266.149,8.181 266.149,32.635 261.852,32.635 261.852,8.181 266.149,8.181 		"/>
		<polygon fill="#FFFFFF" points="288.619,8.181 292.846,8.181 292.846,32.635 289.245,32.635 275.763,15.248 275.763,32.635 
			271.531,32.635 271.531,8.181 275.519,8.181 288.619,25.093 288.619,8.181 		"/>
	</g>
</g>
</svg>
