<?xml version="1.0" encoding="utf-8"?>
<!-- Generator: Adobe Illustrator 21.1.0, SVG Export Plug-In . SVG Version: 6.00 Build 0)  -->
<svg version="1.1" id="Layer_1" xmlns="http://www.w3.org/2000/svg" xmlns:xlink="http://www.w3.org/1999/xlink" x="0px" y="0px"
	 viewBox="0 0 1920 304" style="enable-background:new 0 0 1920 304;" xml:space="preserve">
<style type="text/css">
	.st0{opacity:0.31;}
	.st1{fill:#1080E0;}
	.st2{fill:#FFFFFF;}
</style>
<g>
	<g class="st0">
		<polygon class="st1" points="1862.4,105.8 86.3,105.8 73.5,122.7 1849.6,122.7 		"/>
		<polygon class="st1" points="37.3,158.3 1867.5,158.3 1883,141.4 52.8,141.4 		"/>
		<polygon class="st1" points="44.7,193.8 1820.8,193.8 1833.6,176.9 57.5,176.9 		"/>
	</g>
	<g>
		<polygon class="st1" points="98.9,161.5 1806.4,161.5 1826.5,138.2 119,138.2 		"/>
		<polygon class="st1" points="118.3,210.5 1734.8,210.5 1752.2,187.2 135.7,187.2 		"/>
		<polygon class="st1" points="173.8,111.6 1790.2,111.6 1807.7,88.3 188.6,88.3 		"/>
	</g>
	<polygon class="st1" points="1672.9,248.7 168.2,248.7 252.7,51 1757.4,51 	"/>
	<g>
		<path class="st2" d="M397.9,105.8c6.5,4.8,9.8,11.7,9.8,21c0,6.7-1.5,13-4.5,18.9c-3,5.9-7.9,10.8-14.5,14.5
			c-6.7,3.8-15.2,5.7-25.5,5.7h-10.9l-4.8,33.6H324l14.1-100.8h32C382.1,98.7,391.3,101.1,397.9,105.8z M378.7,142.6
			c3.1-4.1,4.6-9,4.6-14.6c0-4.3-1.3-7.4-3.9-9.3c-2.6-1.9-6.4-2.9-11.6-2.9h-8.6l-4.7,33h8.6C370.4,148.8,375.6,146.7,378.7,142.6z
			"/>
		<path class="st2" d="M422.4,177.9l-8,21.7h-24.4l44.2-100.8h28.4l15.9,100.8h-24.7l-2-21.7H422.4z M445.7,114.7l-16.9,45.8H450
			L445.7,114.7z"/>
		<path class="st2" d="M564.3,143.4c-3.3,5.5-9.3,10.1-18,13.8l18.9,42.3h-25.6l-15.3-38.4l-9.7-0.1l-5.4,38.6h-23.4l14.1-100.8
			h32.4c12.3,0,21.6,2.1,27.7,6.3c6.2,4.2,9.2,10.6,9.2,19.2C569.3,131.4,567.7,137.8,564.3,143.4z M527.3,144.5
			c6.5,0,11.1-1.9,13.7-5.6c2.7-3.7,4-8.1,4-13c0-3.6-1.2-6.2-3.7-7.9c-2.5-1.7-6.3-2.5-11.4-2.5H521l-4.1,29.1H527.3z"/>
		<path class="st2" d="M625.2,117l-11.5,82.5h-23.6l11.6-82.5H576l2.6-18.3h76.1l-5.1,18.3H625.2z"/>
		<path class="st2" d="M696.5,199.5l-18.6-81c0.1,0.6,0.1,1.6,0.1,2.9c0.1,1.7,0.1,4.5,0.1,8.3c0,10.5-0.8,21.8-2.5,34l-5.1,35.8
			h-20.8l14.1-100.8h29.5l18.9,81c-0.3-5.2-0.4-10.1-0.4-14.5c0-7.8,0.6-16.7,1.9-26.9l5.7-39.6h20.8l-14.1,100.8H696.5z"/>
		<path class="st2" d="M780,115.7l-3.5,24.2h30.6l-2.2,16.7h-30.6l-3.6,25.8h37.4l-2.3,17.2h-61l14.1-100.8h61l-4.9,17H780z"/>
		<path class="st2" d="M898.5,143.4c-3.3,5.5-9.3,10.1-18,13.8l18.9,42.3h-25.6l-15.3-38.4l-9.7-0.1l-5.4,38.6H820l14.1-100.8h32.4
			c12.3,0,21.6,2.1,27.7,6.3c6.2,4.2,9.2,10.6,9.2,19.2C903.5,131.4,901.8,137.8,898.5,143.4z M861.5,144.5c6.5,0,11.1-1.9,13.7-5.6
			c2.7-3.7,4-8.1,4-13c0-3.6-1.2-6.2-3.7-7.9c-2.5-1.7-6.3-2.5-11.4-2.5h-8.9l-4.1,29.1H861.5z"/>
		<path class="st2" d="M988,199.5l-18.6-81c0.1,0.6,0.1,1.6,0.1,2.9c0.1,1.7,0.1,4.5,0.1,8.3c0,10.5-0.8,21.8-2.5,34l-5.1,35.8
			h-20.8l14.1-100.8H985l18.9,81c-0.3-5.2-0.4-10.1-0.4-14.5c0-7.8,0.6-16.7,1.9-26.9l5.7-39.6h20.8l-14.1,100.8H988z"/>
		<path class="st2" d="M1071.5,115.7l-3.5,24.2h30.6l-2.2,16.7h-30.6l-3.6,25.8h37.4l-2.3,17.2h-61l14.1-100.8h61l-4.9,17H1071.5z"
			/>
		<path class="st2" d="M1164.1,117l-11.5,82.5H1129l11.6-82.5h-25.8l2.6-18.3h76.1l-5.1,18.3H1164.1z"/>
		<path class="st2" d="M1252.5,199.5l-1.6-77l-24,77h-29.7l-2.2-100.8h23.1l-1.7,82.8l25.5-82.8h24.7l1.3,82.8l23.1-82.8h22.5
			l-30.7,100.8H1252.5z"/>
		<path class="st2" d="M1391.8,107c6.7,7.2,10,17.4,10,30.6c0,10.2-1.7,20.2-5.1,30c-3.4,9.8-9,18-16.9,24.6
			c-7.9,6.6-18,9.9-30.6,9.9c-12.3,0-21.8-3.6-28.5-10.8c-6.7-7.2-10-17.4-10-30.5c0-10.1,1.7-20,5.2-29.8c3.4-9.8,9.1-18,16.9-24.7
			c7.9-6.6,18-10,30.6-10C1375.6,96.2,1385.1,99.8,1391.8,107z M1345.5,121.8c-4,5.4-6.7,11.9-8.3,19.4c-1.6,7.5-2.3,14.9-2.3,22
			c0,14.2,5.3,21.2,16,21.2c6.8,0,12.2-2.7,16.1-8.1c4-5.4,6.7-12,8.3-19.6c1.6-7.6,2.3-15.1,2.3-22.3c0-7.2-1.3-12.4-4-15.8
			c-2.7-3.3-6.7-5-12-5C1354.9,113.7,1349.5,116.4,1345.5,121.8z"/>
		<path class="st2" d="M1486.6,143.4c-3.3,5.5-9.3,10.1-18,13.8l18.9,42.3h-25.6l-15.3-38.4l-9.7-0.1l-5.4,38.6h-23.4l14.1-100.8
			h32.4c12.3,0,21.6,2.1,27.7,6.3c6.2,4.2,9.2,10.6,9.2,19.2C1491.6,131.4,1489.9,137.8,1486.6,143.4z M1449.5,144.5
			c6.5,0,11.1-1.9,13.7-5.6c2.7-3.7,4-8.1,4-13c0-3.6-1.2-6.2-3.7-7.9c-2.5-1.7-6.3-2.5-11.4-2.5h-8.9l-4.1,29.1H1449.5z"/>
		<path class="st2" d="M1496.4,199.5l14.1-100.8h23.4l-14.1,100.8H1496.4z M1579.4,199.5h-26.8l-24.4-53.8l37.7-47h25.2l-38.4,46.7
			L1579.4,199.5z"/>
	</g>
</g>
</svg>
