<?xml version="1.0" standalone="no"?>
<!DOCTYPE svg PUBLIC "-//W3C//DTD SVG 20010904//EN"
 "http://www.w3.org/TR/2001/REC-SVG-20010904/DTD/svg10.dtd">
<svg version="1.0" xmlns="http://www.w3.org/2000/svg"
 width="400.000000pt" height="400.000000pt" viewBox="0 0 400.000000 400.000000"
 preserveAspectRatio="xMidYMid meet">
<metadata>
Created by potrace 1.11, written by Peter Selinger 2001-2013
</metadata>
<g transform="translate(0.000000,400.000000) scale(0.100000,-0.100000)"
fill="#000000" stroke="none">
<path d="M0 2000 l0 -2000 2000 0 2000 0 0 2000 0 2000 -2000 0 -2000 0 0
-2000z m2005 979 c382 -47 552 -201 580 -526 27 -300 -141 -513 -471 -599 -84
-22 -129 -27 -291 -31 l-193 -6 0 -218 0 -219 85 0 85 0 0 -185 0 -185 -460 0
-460 0 0 185 0 185 80 0 80 0 0 620 0 620 -80 0 -80 0 0 185 0 185 518 0 c315
0 552 -4 607 -11z m1115 -1154 l0 -815 -145 0 -145 0 0 815 0 815 145 0 145 0
0 -815z"/>
<path d="M1620 2375 l0 -245 99 0 c126 0 191 20 246 75 121 121 66 351 -96
399 -32 10 -91 16 -151 16 l-98 0 0 -245z"/>
</g>
</svg>
