<?xml version="1.0" encoding="utf-8"?>
<!-- Generator: Adobe Illustrator 21.1.0, SVG Export Plug-In . SVG Version: 6.00 Build 0)  -->
<svg version="1.1" id="Layer_1" xmlns="http://www.w3.org/2000/svg" xmlns:xlink="http://www.w3.org/1999/xlink" x="0px" y="0px"
	 viewBox="0 0 65 65" style="enable-background:new 0 0 65 65;" xml:space="preserve">
<style type="text/css">
	.st0{fill:#9F945C;}
</style>
<g>
	<path class="st0" d="M60.2,0H4.8C2.2,0,0,2.1,0,4.7v55.6C0,62.9,2.2,65,4.8,65h55.4c2.7,0,4.8-2.1,4.8-4.7V4.7
		C65,2.1,62.8,0,60.2,0z M19.3,55.4H9.6v-31h9.6V55.4z M14.5,20.1c-3.1,0-5.6-2.5-5.6-5.6c0-3.1,2.5-5.6,5.6-5.6
		c3.1,0,5.6,2.5,5.6,5.6C20,17.6,17.5,20.1,14.5,20.1z M55.4,55.4h-9.6V40.3c0-3.6-0.1-8.2-5-8.2c-5,0-5.8,3.9-5.8,8v15.3h-9.6v-31
		h9.2v4.2h0.1c1.3-2.4,4.4-5,9.1-5c9.8,0,11.6,6.4,11.6,14.8V55.4z"/>
</g>
</svg>
