<?xml version="1.0" encoding="utf-8"?>
<!-- Generator: Adobe Illustrator 20.0.0, SVG Export Plug-In . SVG Version: 6.00 Build 0)  -->
<svg version="1.1" id="Layer_1" xmlns="http://www.w3.org/2000/svg" xmlns:xlink="http://www.w3.org/1999/xlink" x="0px" y="0px"
	 viewBox="0 0 68.1 46.6" enable-background="new 0 0 68.1 46.6" xml:space="preserve">
<path fill="#1080E0" d="M62.1,43.7C43.4,45,24.7,45,6,43.7c-1.6-0.1-3.1-1.5-3.3-3C0.9,29.1,0.9,17.5,2.7,6C2.9,4.4,4.5,3.1,6,3
	c18.7-1.3,37.4-1.3,56.1,0c1.6,0.1,3.1,1.5,3.3,3c1.8,11.5,1.8,23.1,0,34.6C65.2,42.2,63.6,43.5,62.1,43.7z"/>
<polygon fill="#FFFFFF" points="25.8,23.3 25.8,12.6 35.1,18 44.3,23.3 35.1,28.7 25.8,34 "/>
<polygon fill="#E6E7E8" points="25.8,31.6 44.3,23.3 25.8,34 "/>
</svg>
