<?xml version="1.0" encoding="utf-8"?>
<!-- Generator: Adobe Illustrator 20.0.0, SVG Export Plug-In . SVG Version: 6.00 Build 0)  -->
<svg version="1.1" id="YouTube_Icon" xmlns="http://www.w3.org/2000/svg" xmlns:xlink="http://www.w3.org/1999/xlink" x="0px"
	 y="0px" viewBox="0 0 10.5 7.1" enable-background="new 0 0 10.5 7.1" xml:space="preserve">
<g>
	<path id="The_Sharpness" opacity="0.12" fill-rule="evenodd" clip-rule="evenodd" d="M4.2,2l2.4,1.6l0.3-0.2L4.2,2z"/>
	<g id="Lozenge">
		<g>
			<path fill="#FFFFFF" d="M10.2,1.5c0,0-0.1-0.7-0.4-1C9.4,0.1,9,0.1,8.8,0.1C7.4,0,5.3,0,5.3,0h0c0,0-2.1,0-3.5,0.1
				c-0.2,0-0.6,0-1,0.4c-0.3,0.3-0.4,1-0.4,1S0.2,2.3,0.2,3.2v0.8c0,0.8,0.1,1.6,0.1,1.6s0.1,0.7,0.4,1C1.1,7,1.6,7,1.8,7
				c0.8,0.1,3.4,0.1,3.4,0.1s2.1,0,3.5-0.1c0.2,0,0.6,0,1-0.4c0.3-0.3,0.4-1,0.4-1s0.1-0.8,0.1-1.6V3.2C10.3,2.3,10.2,1.5,10.2,1.5z
				 M4.2,4.9l0-2.8l2.7,1.4L4.2,4.9z"/>
		</g>
	</g>
</g>
</svg>
